<svg width="166" height="91" viewBox="0 0 166 91" fill="none" xmlns="http://www.w3.org/2000/svg">
<mask id="path-1-outside-1_117_7099" maskUnits="userSpaceOnUse" x="13" y="27" width="141" height="38" fill="black">
<rect fill="white" x="13" y="27" width="141" height="38"/>
<path fill-rule="evenodd" clip-rule="evenodd" d="M83 52V63H84V52L152 52V64H153V52V51L84 51V28H83V51L14 51V52V64H15L15 52L83 52Z"/>
</mask>
<path fill-rule="evenodd" clip-rule="evenodd" d="M83 52V63H84V52L152 52V64H153V52V51L84 51V28H83V51L14 51V52V64H15L15 52L83 52Z" fill="#3281EF"/>
<path d="M83 63H82V64H83V63ZM83 52H84V51H83V52ZM84 63V64H85V63H84ZM84 52V51H83V52H84ZM152 52H153V51H152V52ZM152 64H151V65H152V64ZM153 64V65H154V64H153ZM153 51H154V50H153V51ZM84 51H83V52H84V51ZM84 28H85V27H84V28ZM83 28V27H82V28H83ZM83 51V52H84V51H83ZM14 51L14 50H13V51H14ZM14 64H13V65H14V64ZM15 64V65H16V64H15ZM15 52L15 51H14L14 52H15ZM84 63V52H82V63H84ZM84 62H83V64H84V62ZM83 52V63H85V52H83ZM152 51L84 51V53L152 53V51ZM151 52V64H153V52H151ZM152 65H153V63H152V65ZM154 64V52H152V64H154ZM152 51V52H154V51H152ZM84 52L153 52V50L84 50V52ZM83 28V51H85V28H83ZM83 29H84V27H83V29ZM84 51V28H82V51H84ZM14 52L83 52V50L14 50L14 52ZM15 52V51H13V52H15ZM15 64V52H13V64H15ZM15 63H14V65H15V63ZM14 52L14 64H16L16 52H14ZM83 51L15 51L15 53L83 53V51Z" fill="#3281EF" mask="url(#path-1-outside-1_117_7099)"/>
<rect x="35" width="97" height="28" rx="14" fill="#3281EF"/>
<path d="M44.056 19V10.06H47.812C48.316 10.06 48.752 10.156 49.12 10.348C49.496 10.532 49.784 10.792 49.984 11.128C50.192 11.464 50.296 11.856 50.296 12.304C50.296 12.768 50.18 13.18 49.948 13.54C49.724 13.892 49.4 14.16 48.976 14.344L48.964 14.056C49.316 14.184 49.616 14.364 49.864 14.596C50.12 14.828 50.316 15.1 50.452 15.412C50.588 15.716 50.656 16.044 50.656 16.396C50.656 17.196 50.4 17.832 49.888 18.304C49.384 18.768 48.696 19 47.824 19H44.056ZM45.016 18.1H47.824C48.392 18.1 48.844 17.952 49.18 17.656C49.524 17.352 49.696 16.936 49.696 16.408C49.696 15.888 49.524 15.476 49.18 15.172C48.844 14.86 48.392 14.704 47.824 14.704H45.016V18.1ZM45.016 13.84H47.74C48.22 13.84 48.604 13.7 48.892 13.42C49.188 13.14 49.336 12.78 49.336 12.34C49.336 11.892 49.188 11.552 48.892 11.32C48.604 11.08 48.22 10.96 47.74 10.96H45.016V13.84ZM55.5203 19.144C54.8883 19.144 54.3323 19.012 53.8523 18.748C53.3723 18.484 53.0003 18.124 52.7363 17.668C52.4723 17.204 52.3403 16.676 52.3403 16.084V10.06H53.3003V16.084C53.3003 16.516 53.3923 16.896 53.5763 17.224C53.7683 17.544 54.0283 17.796 54.3563 17.98C54.6923 18.156 55.0803 18.244 55.5203 18.244C55.9603 18.244 56.3443 18.156 56.6723 17.98C57.0083 17.796 57.2683 17.544 57.4523 17.224C57.6443 16.896 57.7403 16.516 57.7403 16.084V10.06H58.7003V16.084C58.7003 16.676 58.5683 17.204 58.3043 17.668C58.0403 18.124 57.6683 18.484 57.1883 18.748C56.7163 19.012 56.1603 19.144 55.5203 19.144ZM60.7787 19V10.06H66.5387V10.96H61.7387V14.068H66.2987V14.968H61.7387V18.1H66.5387V19H60.7787ZM71.1383 19.144C70.5703 19.144 70.0543 19.036 69.5903 18.82C69.1263 18.604 68.7343 18.316 68.4143 17.956C68.0943 17.588 67.8663 17.184 67.7303 16.744L68.5943 16.42C68.8023 17.028 69.1263 17.492 69.5663 17.812C70.0063 18.124 70.5303 18.28 71.1383 18.28C71.5223 18.28 71.8583 18.22 72.1463 18.1C72.4423 17.972 72.6703 17.796 72.8303 17.572C72.9903 17.348 73.0703 17.088 73.0703 16.792C73.0703 16.352 72.9503 16.012 72.7103 15.772C72.4703 15.532 72.1263 15.348 71.6783 15.22L70.0703 14.74C69.4383 14.556 68.9503 14.248 68.6063 13.816C68.2703 13.384 68.1023 12.892 68.1023 12.34C68.1023 11.868 68.2183 11.452 68.4503 11.092C68.6823 10.724 68.9983 10.436 69.3983 10.228C69.8063 10.02 70.2663 9.916 70.7783 9.916C71.3143 9.916 71.7943 10.016 72.2183 10.216C72.6503 10.408 73.0143 10.664 73.3103 10.984C73.6063 11.304 73.8183 11.66 73.9463 12.052L73.1063 12.388C72.9143 11.86 72.6143 11.46 72.2063 11.188C71.8063 10.916 71.3343 10.78 70.7903 10.78C70.4463 10.78 70.1423 10.84 69.8783 10.96C69.6223 11.08 69.4223 11.252 69.2783 11.476C69.1343 11.7 69.0623 11.964 69.0623 12.268C69.0623 12.636 69.1783 12.968 69.4103 13.264C69.6423 13.552 69.9983 13.768 70.4783 13.912L71.8943 14.332C72.5983 14.54 73.1303 14.84 73.4903 15.232C73.8503 15.624 74.0303 16.116 74.0303 16.708C74.0303 17.188 73.9063 17.612 73.6583 17.98C73.4183 18.34 73.0783 18.624 72.6383 18.832C72.2063 19.04 71.7063 19.144 71.1383 19.144ZM74.9601 19L78.2241 10.06H79.2561L82.5201 19H81.5121L80.7441 16.816H76.7481L75.9681 19H74.9601ZM77.0601 15.916H80.4081L78.5961 10.78H78.8841L77.0601 15.916ZM85.7513 19V10.06H86.7113V18.1H90.6713V19H85.7513ZM91.9943 19V12.568H92.8943V19H91.9943ZM91.9943 11.38V10.06H92.8943V11.38H91.9943ZM97.9885 19.144C97.4365 19.144 96.9365 19.02 96.4885 18.772C96.0485 18.516 95.7165 18.156 95.4925 17.692L95.6365 17.56V19H94.7365V9.916H95.6365V14.008L95.4925 13.756C95.7485 13.348 96.0885 13.024 96.5125 12.784C96.9445 12.544 97.4365 12.424 97.9885 12.424C98.5965 12.424 99.1365 12.572 99.6085 12.868C100.089 13.156 100.465 13.552 100.737 14.056C101.017 14.56 101.157 15.136 101.157 15.784C101.157 16.424 101.017 17 100.737 17.512C100.465 18.016 100.089 18.416 99.6085 18.712C99.1365 19 98.5965 19.144 97.9885 19.144ZM97.9405 18.244C98.3725 18.244 98.7565 18.136 99.0925 17.92C99.4365 17.704 99.7045 17.412 99.8965 17.044C100.097 16.668 100.197 16.248 100.197 15.784C100.197 15.312 100.097 14.892 99.8965 14.524C99.7045 14.156 99.4365 13.864 99.0925 13.648C98.7565 13.432 98.3725 13.324 97.9405 13.324C97.5085 13.324 97.1165 13.432 96.7645 13.648C96.4205 13.864 96.1445 14.16 95.9365 14.536C95.7365 14.904 95.6365 15.32 95.6365 15.784C95.6365 16.248 95.7365 16.668 95.9365 17.044C96.1445 17.412 96.4205 17.704 96.7645 17.92C97.1165 18.136 97.5085 18.244 97.9405 18.244ZM102.74 19V12.568H103.64V13.624L103.52 13.468C103.672 13.164 103.9 12.924 104.204 12.748C104.516 12.572 104.892 12.484 105.332 12.484H105.74V13.384H105.176C104.712 13.384 104.34 13.528 104.06 13.816C103.78 14.104 103.64 14.512 103.64 15.04V19H102.74ZM108.655 19.144C108.247 19.144 107.883 19.068 107.563 18.916C107.243 18.756 106.991 18.54 106.807 18.268C106.623 17.996 106.531 17.684 106.531 17.332C106.531 16.996 106.603 16.692 106.747 16.42C106.891 16.14 107.115 15.904 107.419 15.712C107.723 15.52 108.111 15.384 108.583 15.304L111.103 14.884V15.7L108.799 16.084C108.335 16.164 107.999 16.312 107.791 16.528C107.591 16.744 107.491 17 107.491 17.296C107.491 17.584 107.603 17.828 107.827 18.028C108.059 18.228 108.355 18.328 108.715 18.328C109.155 18.328 109.539 18.236 109.867 18.052C110.195 17.86 110.451 17.604 110.635 17.284C110.819 16.964 110.911 16.608 110.911 16.216V14.584C110.911 14.2 110.771 13.888 110.491 13.648C110.211 13.408 109.847 13.288 109.399 13.288C109.007 13.288 108.663 13.388 108.367 13.588C108.071 13.78 107.851 14.032 107.707 14.344L106.891 13.9C107.011 13.628 107.199 13.38 107.455 13.156C107.719 12.932 108.019 12.756 108.355 12.628C108.691 12.492 109.039 12.424 109.399 12.424C109.871 12.424 110.287 12.516 110.647 12.7C111.015 12.884 111.299 13.14 111.499 13.468C111.707 13.788 111.811 14.16 111.811 14.584V19H110.911V17.716L111.043 17.848C110.931 18.088 110.755 18.308 110.515 18.508C110.283 18.7 110.007 18.856 109.687 18.976C109.375 19.088 109.031 19.144 108.655 19.144ZM113.662 19V12.568H114.562V13.624L114.442 13.468C114.594 13.164 114.822 12.924 115.126 12.748C115.438 12.572 115.814 12.484 116.254 12.484H116.662V13.384H116.098C115.634 13.384 115.262 13.528 114.982 13.816C114.702 14.104 114.562 14.512 114.562 15.04V19H113.662ZM117.849 21.64C117.721 21.64 117.589 21.628 117.453 21.604C117.325 21.588 117.197 21.556 117.069 21.508V20.668C117.149 20.676 117.249 20.688 117.369 20.704C117.497 20.728 117.625 20.74 117.753 20.74C118.145 20.74 118.445 20.656 118.653 20.488C118.861 20.328 119.065 20.016 119.265 19.552L119.673 18.592L119.649 19.384L116.925 12.568H117.897L120.129 18.196H119.877L122.097 12.568H123.093L120.153 19.816C120.025 20.128 119.861 20.424 119.661 20.704C119.469 20.984 119.225 21.208 118.929 21.376C118.633 21.552 118.273 21.64 117.849 21.64Z" fill="#FFFBFB"/>
<circle cx="83" cy="77" r="14" fill="#FDA33B"/>
<circle cx="152" cy="77" r="14" fill="#E73C37"/>
<circle cx="14" cy="77" r="14" fill="#E73C37"/>
</svg>
