<svg width="241" height="48" viewBox="0 0 241 48" fill="none" xmlns="http://www.w3.org/2000/svg">
<g clip-path="url(#clip0_117_7150)">
<rect x="0.5" y="0.5" width="311" height="47" rx="19.5" fill="white"/>
<rect x="0.5" y="0.5" width="311" height="47" rx="19.5" stroke="#3281EF"/>
</g>
<path d="M21.1668 30C24.3885 30 27.0002 27.3883 27.0002 24.1666C27.0002 20.945 24.3885 18.3333 21.1668 18.3333C17.9452 18.3333 15.3335 20.945 15.3335 24.1666C15.3335 27.3883 17.9452 30 21.1668 30Z" stroke="#736D6E" stroke-width="1.5"/>
<path d="M28.3467 31.3461L25.8467 28.8461" stroke="#736D6E" stroke-width="1.5" stroke-linecap="round"/>
<path d="M39.746 31.168C39.0833 31.168 38.4767 31.0467 37.926 30.804C37.3753 30.552 36.9087 30.2113 36.526 29.782C36.1433 29.3527 35.868 28.872 35.7 28.34L36.89 27.85C37.142 28.522 37.5153 29.04 38.01 29.404C38.514 29.7587 39.102 29.936 39.774 29.936C40.1847 29.936 40.544 29.8707 40.852 29.74C41.16 29.6093 41.398 29.4273 41.566 29.194C41.7433 28.9513 41.832 28.6713 41.832 28.354C41.832 27.9153 41.706 27.57 41.454 27.318C41.2113 27.0567 40.852 26.8607 40.376 26.73L38.458 26.142C37.702 25.9087 37.1233 25.54 36.722 25.036C36.3207 24.532 36.12 23.9533 36.12 23.3C36.12 22.7307 36.2553 22.2313 36.526 21.802C36.806 21.3633 37.1887 21.0227 37.674 20.78C38.1687 20.528 38.7287 20.402 39.354 20.402C39.9793 20.402 40.544 20.514 41.048 20.738C41.5613 20.962 41.9953 21.2653 42.35 21.648C42.7047 22.0213 42.966 22.4507 43.134 22.936L41.958 23.426C41.734 22.838 41.398 22.3947 40.95 22.096C40.502 21.788 39.9747 21.634 39.368 21.634C38.9947 21.634 38.6633 21.6993 38.374 21.83C38.094 21.9513 37.8747 22.1333 37.716 22.376C37.5667 22.6093 37.492 22.8893 37.492 23.216C37.492 23.5987 37.6133 23.9393 37.856 24.238C38.0987 24.5367 38.4673 24.7653 38.962 24.924L40.712 25.442C41.5333 25.694 42.154 26.0533 42.574 26.52C42.994 26.9867 43.204 27.5653 43.204 28.256C43.204 28.8253 43.0547 29.3293 42.756 29.768C42.4667 30.2067 42.0607 30.552 41.538 30.804C41.0247 31.0467 40.4273 31.168 39.746 31.168ZM48.5308 31.168C47.8028 31.168 47.1541 30.9953 46.5848 30.65C46.0154 30.3047 45.5674 29.8333 45.2408 29.236C44.9141 28.6293 44.7508 27.9527 44.7508 27.206C44.7508 26.45 44.9094 25.778 45.2268 25.19C45.5534 24.602 45.9921 24.14 46.5428 23.804C47.1028 23.4587 47.7281 23.286 48.4188 23.286C48.9788 23.286 49.4734 23.3887 49.9028 23.594C50.3414 23.79 50.7101 24.0607 51.0088 24.406C51.3168 24.742 51.5501 25.1293 51.7088 25.568C51.8768 25.9973 51.9608 26.4453 51.9608 26.912C51.9608 27.0147 51.9514 27.1313 51.9328 27.262C51.9234 27.3833 51.9094 27.5 51.8908 27.612H45.7028V26.492H51.1348L50.5188 26.996C50.6028 26.5107 50.5561 26.0767 50.3788 25.694C50.2014 25.3113 49.9401 25.008 49.5948 24.784C49.2494 24.56 48.8574 24.448 48.4188 24.448C47.9801 24.448 47.5788 24.56 47.2148 24.784C46.8508 25.008 46.5661 25.33 46.3608 25.75C46.1648 26.1607 46.0854 26.6507 46.1228 27.22C46.0854 27.7707 46.1694 28.256 46.3748 28.676C46.5894 29.0867 46.8881 29.4087 47.2708 29.642C47.6628 29.866 48.0874 29.978 48.5448 29.978C49.0488 29.978 49.4734 29.8613 49.8188 29.628C50.1641 29.3947 50.4441 29.096 50.6588 28.732L51.7508 29.292C51.6014 29.6373 51.3681 29.9547 51.0508 30.244C50.7428 30.524 50.3741 30.748 49.9448 30.916C49.5248 31.084 49.0534 31.168 48.5308 31.168ZM55.7747 31.168C55.28 31.168 54.8414 31.0793 54.4587 30.902C54.0854 30.7153 53.7914 30.4633 53.5767 30.146C53.362 29.8193 53.2547 29.446 53.2547 29.026C53.2547 28.6247 53.3387 28.2653 53.5067 27.948C53.684 27.6213 53.9547 27.346 54.3187 27.122C54.692 26.898 55.1587 26.7393 55.7187 26.646L58.5187 26.184V27.276L56.0127 27.696C55.5274 27.78 55.1727 27.934 54.9487 28.158C54.734 28.382 54.6267 28.6573 54.6267 28.984C54.6267 29.292 54.748 29.5487 54.9907 29.754C55.2427 29.9593 55.5554 30.062 55.9287 30.062C56.4047 30.062 56.8154 29.964 57.1607 29.768C57.5154 29.5627 57.7907 29.2873 57.9867 28.942C58.192 28.5967 58.2947 28.214 58.2947 27.794V25.876C58.2947 25.4653 58.1407 25.134 57.8327 24.882C57.534 24.6207 57.1374 24.49 56.6427 24.49C56.2134 24.49 55.8307 24.602 55.4947 24.826C55.168 25.0407 54.9254 25.33 54.7667 25.694L53.6327 25.106C53.7727 24.7607 53.9967 24.4527 54.3047 24.182C54.6127 23.902 54.972 23.6827 55.3827 23.524C55.7934 23.3653 56.2227 23.286 56.6707 23.286C57.2494 23.286 57.758 23.398 58.1967 23.622C58.6354 23.8367 58.976 24.14 59.2187 24.532C59.4707 24.9147 59.5967 25.3627 59.5967 25.876V31H58.3227V29.572L58.5607 29.656C58.402 29.9547 58.1874 30.216 57.9167 30.44C57.646 30.664 57.3287 30.8413 56.9647 30.972C56.6007 31.1027 56.204 31.168 55.7747 31.168ZM61.6154 31V23.454H62.8894V24.84L62.7494 24.644C62.9268 24.2147 63.1974 23.8973 63.5614 23.692C63.9254 23.4773 64.3688 23.37 64.8914 23.37H65.3534V24.602H64.6954C64.1634 24.602 63.7341 24.77 63.4074 25.106C63.0808 25.4327 62.9174 25.8993 62.9174 26.506V31H61.6154ZM70.01 31.168C69.2726 31.168 68.6146 30.9953 68.036 30.65C67.4666 30.3047 67.0186 29.8333 66.692 29.236C66.3653 28.6387 66.202 27.9667 66.202 27.22C66.202 26.464 66.3653 25.792 66.692 25.204C67.0186 24.616 67.4666 24.1493 68.036 23.804C68.6146 23.4587 69.2726 23.286 70.01 23.286C70.5046 23.286 70.9666 23.3747 71.396 23.552C71.8253 23.7293 72.2033 23.9673 72.53 24.266C72.8566 24.5647 73.0946 24.9147 73.244 25.316L72.082 25.876C71.9046 25.484 71.634 25.1667 71.27 24.924C70.906 24.672 70.486 24.546 70.01 24.546C69.5526 24.546 69.1373 24.6627 68.764 24.896C68.4 25.1293 68.1106 25.4467 67.896 25.848C67.6813 26.2493 67.574 26.7113 67.574 27.234C67.574 27.738 67.6813 28.1953 67.896 28.606C68.1106 29.0073 68.4 29.3247 68.764 29.558C69.1373 29.7913 69.5526 29.908 70.01 29.908C70.486 29.908 70.906 29.7867 71.27 29.544C71.634 29.292 71.9046 28.9607 72.082 28.55L73.244 29.138C73.0946 29.53 72.8566 29.88 72.53 30.188C72.2033 30.4867 71.8253 30.7247 71.396 30.902C70.9666 31.0793 70.5046 31.168 70.01 31.168ZM74.9455 31V20.402H76.2475V24.924L76.0095 24.798C76.1962 24.322 76.4948 23.9533 76.9055 23.692C77.3255 23.4213 77.8155 23.286 78.3755 23.286C78.9168 23.286 79.3975 23.4073 79.8175 23.65C80.2468 23.8927 80.5828 24.2287 80.8255 24.658C81.0775 25.0873 81.2035 25.5727 81.2035 26.114V31H79.8875V26.534C79.8875 26.114 79.8082 25.7593 79.6495 25.47C79.5002 25.1807 79.2902 24.9567 79.0195 24.798C78.7488 24.63 78.4362 24.546 78.0815 24.546C77.7362 24.546 77.4235 24.63 77.1435 24.798C76.8635 24.9567 76.6442 25.1853 76.4855 25.484C76.3268 25.7733 76.2475 26.1233 76.2475 26.534V31H74.9455Z" fill="#736D6E"/>
<defs>
<clipPath id="clip0_117_7150">
<rect width="241" height="48" fill="white"/>
</clipPath>
</defs>
</svg>
