<svg width="268" height="128" viewBox="0 0 268 128" fill="none" xmlns="http://www.w3.org/2000/svg">
<g opacity="0.6" clip-path="url(#clip0_117_7114)">
<path d="M60.3925 82.012L15.0991 72.8989L13.941 79.8057L59.2344 88.9189L60.3925 82.012Z" fill="#6073C7"/>
<path d="M82.9998 74.3622L37.5211 65.3375L15.1479 73.0141L60.6266 82.0389L82.9998 74.3622Z" fill="#DC5325"/>
<path d="M60.621 82.0644L59.4761 89.0002L81.8492 81.3235L82.9941 74.3878L60.621 82.0644Z" fill="white"/>
<path d="M59.9798 74.7533L20.9956 67.0156L20.0121 72.9618L58.9963 80.6995L59.9798 74.7533Z" fill="#EAB2C5"/>
<path d="M79.1624 68.1675L40.1769 60.433L20.9976 67.0146L59.9831 74.7491L79.1624 68.1675Z" fill="#EFC555"/>
<path d="M59.9793 74.7746L58.9961 80.72L78.1754 74.1385L79.1586 68.1931L59.9793 74.7746Z" fill="white"/>
<path d="M61.8172 60.4991L29.0728 54L26.9998 66.5325L59.7442 73.0317L61.8172 60.4991Z" fill="#6073C7"/>
<path d="M77.7939 54.4949L45.0475 48.0001L28.9399 53.5263L61.6863 60.0247L77.7939 54.4949Z" fill="#DC5325"/>
<path d="M61.6829 60.043L59.6108 72.5772L75.7184 67.051L77.7904 54.5168L61.6829 60.043Z" fill="white"/>
<path d="M31.7734 58.4852L57.4789 63.0428" stroke="black" stroke-width="0.645531" stroke-linecap="round" stroke-linejoin="round"/>
<path d="M36.7036 63.3386L51.6696 66.2878" stroke="black" stroke-width="0.645531" stroke-linecap="round" stroke-linejoin="round"/>
<path d="M68.7002 62.1176L76.9553 59.5551" stroke="black" stroke-width="0.645531" stroke-linecap="round" stroke-linejoin="round"/>
<path d="M65.0186 66.4944L74.7319 63.5452" stroke="black" stroke-width="0.645531" stroke-linecap="round" stroke-linejoin="round"/>
<path d="M17.3789 77.2574L56.7933 85.1437" stroke="black" stroke-width="0.645531" stroke-linecap="round" stroke-linejoin="round"/>
<path d="M24.0596 73.7624L24.8217 67.7736L34.3437 69.6639L33.6179 75.6599L24.0596 73.7624Z" fill="#6073C7"/>
<path d="M30.7541 71.5363L29.5664 71.9592V73.3253L28.8339 72.2194L27.6494 72.6423L28.3819 71.5363L27.6494 70.4339L28.8339 70.8532L29.5664 69.7509V71.117L30.7541 71.5363Z" fill="black"/>
<path d="M67.248 82.7655L82.5209 77.2574" stroke="black" stroke-width="0.645531" stroke-linecap="round" stroke-linejoin="round"/>
<path d="M72.0522 82.7654L82.1945 79.2307" stroke="black" stroke-width="0.645531" stroke-linecap="round" stroke-linejoin="round"/>
<path d="M65.0186 75.349L78.6879 71.0372" stroke="black" stroke-width="0.645531" stroke-linecap="round" stroke-linejoin="round"/>
<path d="M46.7525 49.9124L38.3589 53.0965L44.2747 54.347L51.9523 51.0761L46.7525 49.9124Z" fill="#EFC555"/>
</g>
<rect x="98" y="62" width="156" height="12" rx="6" fill="#FFFBFB"/>
<rect x="98" y="62" width="88" height="12" rx="6" fill="#E73C37"/>
<rect x="162" y="39" width="44" height="16" rx="4" fill="#3281EF"/>
<path d="M168.8 50.096C168.379 50.096 168.008 50.008 167.688 49.832C167.368 49.656 167.12 49.416 166.944 49.112C166.768 48.8027 166.68 48.4507 166.68 48.056V44.04H167.32V48.056C167.32 48.344 167.381 48.5973 167.504 48.816C167.632 49.0293 167.805 49.1973 168.024 49.32C168.248 49.4373 168.507 49.496 168.8 49.496C169.093 49.496 169.349 49.4373 169.568 49.32C169.792 49.1973 169.965 49.0293 170.088 48.816C170.216 48.5973 170.28 48.344 170.28 48.056V44.04H170.92V48.056C170.92 48.4507 170.832 48.8027 170.656 49.112C170.48 49.416 170.232 49.656 169.912 49.832C169.597 50.008 169.227 50.096 168.8 50.096ZM172.218 51.6V45.712H172.818V46.672L172.722 46.504C172.892 46.232 173.119 46.016 173.402 45.856C173.69 45.696 174.018 45.616 174.386 45.616C174.791 45.616 175.151 45.7147 175.466 45.912C175.786 46.104 176.036 46.368 176.218 46.704C176.404 47.04 176.498 47.424 176.498 47.856C176.498 48.2827 176.404 48.6667 176.218 49.008C176.036 49.344 175.786 49.6107 175.466 49.808C175.151 50 174.791 50.096 174.386 50.096C174.018 50.096 173.684 50.0133 173.386 49.848C173.092 49.6773 172.871 49.4373 172.722 49.128L172.818 49.04V51.6H172.218ZM174.354 49.496C174.642 49.496 174.898 49.424 175.122 49.28C175.351 49.136 175.53 48.9413 175.658 48.696C175.791 48.4453 175.858 48.1653 175.858 47.856C175.858 47.5413 175.791 47.2613 175.658 47.016C175.53 46.7707 175.351 46.576 175.122 46.432C174.898 46.288 174.642 46.216 174.354 46.216C174.066 46.216 173.804 46.288 173.57 46.432C173.34 46.576 173.156 46.7733 173.018 47.024C172.884 47.2693 172.818 47.5467 172.818 47.856C172.818 48.1653 172.884 48.4453 173.018 48.696C173.156 48.9413 173.34 49.136 173.57 49.28C173.804 49.424 174.066 49.496 174.354 49.496ZM179.49 50.096C179.09 50.096 178.73 50 178.41 49.808C178.09 49.6107 177.836 49.344 177.65 49.008C177.468 48.6667 177.378 48.2827 177.378 47.856C177.378 47.424 177.468 47.04 177.65 46.704C177.836 46.368 178.087 46.104 178.402 45.912C178.722 45.7147 179.084 45.616 179.49 45.616C179.858 45.616 180.186 45.696 180.474 45.856C180.762 46.016 180.988 46.232 181.154 46.504L181.058 46.672V43.944H181.658V50H181.058V49.04L181.154 49.128C181.004 49.4373 180.78 49.6773 180.482 49.848C180.188 50.0133 179.858 50.096 179.49 50.096ZM179.522 49.496C179.81 49.496 180.068 49.424 180.298 49.28C180.532 49.136 180.716 48.9413 180.85 48.696C180.988 48.4453 181.058 48.1653 181.058 47.856C181.058 47.5467 180.988 47.2693 180.85 47.024C180.716 46.7733 180.532 46.576 180.298 46.432C180.068 46.288 179.81 46.216 179.522 46.216C179.239 46.216 178.983 46.288 178.754 46.432C178.524 46.576 178.343 46.7707 178.21 47.016C178.082 47.2613 178.018 47.5413 178.018 47.856C178.018 48.1653 178.082 48.4453 178.21 48.696C178.343 48.9413 178.522 49.136 178.746 49.28C178.975 49.424 179.234 49.496 179.522 49.496ZM184.129 50.096C183.857 50.096 183.615 50.0453 183.401 49.944C183.188 49.8373 183.02 49.6933 182.897 49.512C182.775 49.3307 182.713 49.1227 182.713 48.888C182.713 48.664 182.761 48.4613 182.857 48.28C182.953 48.0933 183.103 47.936 183.305 47.808C183.508 47.68 183.767 47.5893 184.081 47.536L185.761 47.256V47.8L184.225 48.056C183.916 48.1093 183.692 48.208 183.553 48.352C183.42 48.496 183.353 48.6667 183.353 48.864C183.353 49.056 183.428 49.2187 183.577 49.352C183.732 49.4853 183.929 49.552 184.169 49.552C184.463 49.552 184.719 49.4907 184.937 49.368C185.156 49.24 185.327 49.0693 185.449 48.856C185.572 48.6427 185.633 48.4053 185.633 48.144V47.056C185.633 46.8 185.54 46.592 185.353 46.432C185.167 46.272 184.924 46.192 184.625 46.192C184.364 46.192 184.135 46.2587 183.937 46.392C183.74 46.52 183.593 46.688 183.497 46.896L182.953 46.6C183.033 46.4187 183.159 46.2533 183.329 46.104C183.505 45.9547 183.705 45.8373 183.929 45.752C184.153 45.6613 184.385 45.616 184.625 45.616C184.94 45.616 185.217 45.6773 185.457 45.8C185.703 45.9227 185.892 46.0933 186.025 46.312C186.164 46.5253 186.233 46.7733 186.233 47.056V50H185.633V49.144L185.721 49.232C185.647 49.392 185.529 49.5387 185.369 49.672C185.215 49.8 185.031 49.904 184.817 49.984C184.609 50.0587 184.38 50.096 184.129 50.096ZM189.029 50.048C188.645 50.048 188.349 49.936 188.141 49.712C187.933 49.488 187.829 49.168 187.829 48.752V46.312H187.037V45.712H187.237C187.419 45.712 187.563 45.6533 187.669 45.536C187.776 45.4133 187.829 45.2613 187.829 45.08V44.72H188.429V45.712H189.373V46.312H188.429V48.752C188.429 48.896 188.451 49.024 188.493 49.136C188.536 49.2427 188.608 49.328 188.709 49.392C188.816 49.456 188.957 49.488 189.133 49.488C189.176 49.488 189.227 49.4853 189.285 49.48C189.344 49.4747 189.395 49.4693 189.437 49.464V50C189.373 50.016 189.301 50.0267 189.221 50.032C189.141 50.0427 189.077 50.048 189.029 50.048ZM190.491 50V45.712H191.091V50H190.491ZM190.491 44.92V44.04H191.091V44.92H190.491ZM192.319 50V45.712H192.919V46.544L192.783 46.512C192.89 46.2347 193.063 46.016 193.303 45.856C193.548 45.696 193.831 45.616 194.151 45.616C194.455 45.616 194.727 45.6853 194.967 45.824C195.212 45.9627 195.404 46.1547 195.543 46.4C195.687 46.64 195.759 46.912 195.759 47.216V50H195.159V47.448C195.159 47.1867 195.111 46.9653 195.015 46.784C194.924 46.6027 194.794 46.464 194.623 46.368C194.458 46.2667 194.266 46.216 194.047 46.216C193.828 46.216 193.634 46.2667 193.463 46.368C193.292 46.464 193.159 46.6053 193.063 46.792C192.967 46.9733 192.919 47.192 192.919 47.448V50H192.319ZM198.937 51.76C198.644 51.76 198.372 51.7147 198.121 51.624C197.876 51.5333 197.662 51.408 197.481 51.248C197.305 51.0933 197.169 50.912 197.073 50.704L197.625 50.408C197.71 50.6107 197.862 50.7867 198.081 50.936C198.3 51.0853 198.58 51.16 198.921 51.16C199.182 51.16 199.422 51.1093 199.641 51.008C199.86 50.9067 200.036 50.7573 200.169 50.56C200.302 50.3627 200.369 50.12 200.369 49.832V48.88L200.465 48.968C200.316 49.2773 200.094 49.5173 199.801 49.688C199.508 49.8533 199.188 49.936 198.841 49.936C198.441 49.936 198.081 49.84 197.761 49.648C197.441 49.456 197.188 49.1973 197.001 48.872C196.82 48.5413 196.729 48.176 196.729 47.776C196.729 47.3707 196.82 47.0053 197.001 46.68C197.188 46.3547 197.438 46.096 197.753 45.904C198.073 45.712 198.436 45.616 198.841 45.616C199.188 45.616 199.502 45.696 199.785 45.856C200.073 46.016 200.3 46.232 200.465 46.504L200.369 46.672V45.712H200.969V49.832C200.969 50.2 200.881 50.528 200.705 50.816C200.534 51.1093 200.294 51.3387 199.985 51.504C199.681 51.6747 199.332 51.76 198.937 51.76ZM198.873 49.336C199.15 49.336 199.401 49.2667 199.625 49.128C199.849 48.984 200.028 48.7947 200.161 48.56C200.3 48.32 200.369 48.0587 200.369 47.776C200.369 47.4933 200.3 47.2347 200.161 47C200.028 46.76 199.849 46.5707 199.625 46.432C199.401 46.288 199.15 46.216 198.873 46.216C198.59 46.216 198.334 46.288 198.105 46.432C197.876 46.5707 197.694 46.7573 197.561 46.992C197.433 47.2267 197.369 47.488 197.369 47.776C197.369 48.0587 197.433 48.32 197.561 48.56C197.694 48.7947 197.873 48.984 198.097 49.128C198.326 49.2667 198.585 49.336 198.873 49.336Z" fill="#FFFBFB"/>
<path d="M184.655 61.4331C184.279 61.7585 183.721 61.7585 183.345 61.4331L175.635 54.7559C174.935 54.1498 175.364 53 176.29 53H191.71C192.636 53 193.065 54.1498 192.365 54.7559L184.655 61.4331Z" fill="#3281EF"/>
<defs>
<clipPath id="clip0_117_7114">
<rect width="69" height="41" fill="white" transform="translate(14 48)"/>
</clipPath>
</defs>
</svg>
